# xmcd
#
# Track frame offsets:
#   150
#   11344
#   19897
#   34003
#   49424
#   59279
#   70736
#   80589
#   91455
#   107108
#   121191
#   140435
#   169049
#   182469
#   194523
#   206914
#   219470
#   230068
#   241028
#   260288
#   273530
#   295138
#
# Disc length: 4194 seconds
#
# Revision: 0
# Processed by: cddbd v1.5.2PL0 Copyright (c) Steve Scherf et al.
# Submitted via: GXTranscoder 2.0.1939
#
DISCID=3f106016
DTITLE=Various Artist - Soul Stew
DYEAR=2005
DGENRE=Blues
TTITLE0=Spooners Crowd - Two in a morning
TTITLE1=esg - chistelle
TTITLE2=della reese - don't build your world around a man
TTITLE3=nolan porter - if i could only
TTITLE4=the olympics - same old song
TTITLE5=alfreda brockington - chained and bound
TTITLE6=gloria jones - tainted love
TTITLE7=lil' bob - stop
TTITLE8=al wilson - the snake
TTITLE9=eddie floyd - knock on wood
TTITLE10=eddie russ - i heard that
TTITLE11=harold melvin and the blue not - the love i lost
TTITLE12=john ellison - lost the will to live
TTITLE13=the flirtations - nothing but a heartache
TTITLE14=micky lynn - i've got the blues
TTITLE15=timebox - beggin'
TTITLE16=marylin barbarin - reborn
TTITLE17=the meters - funky miracle
TTITLE18=chakachas - jungle fever
TTITLE19=marlena shaw - california soul
TTITLE20=curtis mayfield - we've only just begun
TTITLE21=bill withers - lovely day
EXTD=
EXTT0=
EXTT1=
EXTT2=
EXTT3=
EXTT4=
EXTT5=
EXTT6=
EXTT7=
EXTT8=
EXTT9=
EXTT10=
EXTT11=
EXTT12=
EXTT13=
EXTT14=
EXTT15=
EXTT16=
EXTT17=
EXTT18=
EXTT19=
EXTT20=
EXTT21=
PLAYORDER=
